<?xml version="1.0" standalone="no"?>
<!DOCTYPE svg PUBLIC "-//W3C//DTD SVG 20010904//EN"
 "http://www.w3.org/TR/2001/REC-SVG-20010904/DTD/svg10.dtd">
<svg version="1.0" xmlns="http://www.w3.org/2000/svg"
 width="125.000000pt" height="125.000000pt" viewBox="0 0 125.000000 125.000000"
 preserveAspectRatio="xMidYMid meet">
<metadata>
Created by potrace 1.14, written by Peter Selinger 2001-2017
</metadata>
<g transform="translate(0.000000,125.000000) scale(0.100000,-0.100000)"
fill="#000000" stroke="none">
<path d="M505 1181 c-64 -23 -148 -66 -205 -104 -60 -39 -171 -155 -195 -203
-11 -22 -23 -41 -26 -44 -9 -7 -45 -81 -54 -110 -7 -22 -4 -21 24 10 17 19 37
49 46 65 8 17 15 26 15 21 0 -15 40 26 40 41 0 7 4 13 10 13 5 0 32 21 60 48
29 26 59 51 68 56 10 5 22 14 28 22 13 17 163 76 174 69 5 -3 11 4 15 15 7 21
20 26 30 10 3 -5 41 -9 83 -9 88 1 123 -4 199 -31 132 -46 237 -141 276 -249
37 -100 46 -131 39 -131 -4 0 -8 -16 -9 -36 -3 -57 -49 -141 -97 -176 -81 -59
-149 -73 -250 -48 -47 11 -64 22 -96 58 -22 24 -42 60 -46 79 -4 19 -13 37
-21 40 -11 4 -11 8 -1 20 7 8 14 27 16 41 4 29 26 74 55 114 11 15 18 30 15
33 -12 13 -131 6 -178 -10 -52 -17 -139 -88 -165 -133 -61 -111 -72 -152 -64
-247 4 -50 64 -152 125 -212 168 -165 396 -193 584 -73 89 57 157 144 203 260
27 71 49 188 36 196 -9 5 -7 40 3 49 3 4 2 20 -3 37 -4 17 -7 33 -7 37 1 3 -6
21 -15 38 -10 18 -17 36 -17 40 0 36 -59 129 -126 199 -48 49 -177 144 -245
179 -81 43 -242 56 -324 26z"/>
</g>
</svg>
